<?xml version="1.0" encoding="utf-8"?>
<!-- Generator: Adobe Illustrator 16.0.0, SVG Export Plug-In . SVG Version: 6.00 Build 0)  -->
<!DOCTYPE svg PUBLIC "-//W3C//DTD SVG 1.1//EN" "http://www.w3.org/Graphics/SVG/1.1/DTD/svg11.dtd">
<svg version="1.1" id="Layer_1" xmlns="http://www.w3.org/2000/svg" xmlns:xlink="http://www.w3.org/1999/xlink" x="0px" y="0px"
	 width="127.395px" height="27.503px" viewBox="0 0 127.395 27.503" enable-background="new 0 0 127.395 27.503"
	 xml:space="preserve">
<path fill="none" stroke="#026CB4" stroke-miterlimit="10" d="M126.895,25.003c0,1.105-0.83,2-1.854,2H2.356
	c-1.025,0-1.856-0.895-1.856-2V2.5c0-1.104,0.831-2,1.856-2h122.685c1.024,0,1.854,0.895,1.854,2V25.003z"/>
<g>
	<path fill="#026CB4" d="M15.587,16.332c0,0.942-0.342,1.677-1.025,2.205s-1.611,0.791-2.783,0.791c-1.27,0-2.246-0.164-2.93-0.491
		v-1.201c0.439,0.186,0.918,0.332,1.436,0.439s1.03,0.161,1.538,0.161c0.83,0,1.455-0.158,1.875-0.472
		c0.42-0.315,0.63-0.753,0.63-1.315c0-0.371-0.075-0.675-0.224-0.912s-0.398-0.456-0.747-0.656s-0.88-0.427-1.593-0.681
		c-0.996-0.356-1.708-0.779-2.135-1.267c-0.428-0.488-0.641-1.125-0.641-1.912c0-0.825,0.31-1.482,0.93-1.97s1.44-0.732,2.461-0.732
		c1.064,0,2.043,0.195,2.937,0.586l-0.388,1.084c-0.884-0.371-1.743-0.557-2.578-0.557c-0.659,0-1.174,0.142-1.545,0.425
		s-0.557,0.676-0.557,1.179c0,0.371,0.068,0.675,0.205,0.912s0.367,0.454,0.692,0.651c0.325,0.198,0.822,0.417,1.491,0.656
		c1.123,0.4,1.896,0.83,2.318,1.289S15.587,15.6,15.587,16.332z"/>
	<path fill="#026CB4" d="M20.985,19.328c-1.187,0-2.123-0.361-2.809-1.084s-1.029-1.726-1.029-3.01c0-1.294,0.319-2.322,0.956-3.083
		c0.638-0.762,1.493-1.143,2.567-1.143c1.006,0,1.802,0.331,2.388,0.992c0.586,0.662,0.879,1.535,0.879,2.619v0.769h-5.53
		c0.024,0.942,0.262,1.658,0.714,2.146c0.451,0.488,1.087,0.732,1.908,0.732c0.864,0,1.719-0.181,2.563-0.542v1.084
		c-0.43,0.186-0.836,0.319-1.219,0.399C21.989,19.288,21.527,19.328,20.985,19.328z M20.655,12.025c-0.645,0-1.159,0.21-1.542,0.63
		s-0.609,1.001-0.677,1.743h4.197c0-0.767-0.171-1.354-0.513-1.761S21.29,12.025,20.655,12.025z"/>
	<path fill="#026CB4" d="M27.225,19.181h-1.216V7.785h1.216V19.181z"/>
	<path fill="#026CB4" d="M33.194,19.328c-1.187,0-2.123-0.361-2.809-1.084s-1.029-1.726-1.029-3.01c0-1.294,0.319-2.322,0.956-3.083
		c0.638-0.762,1.493-1.143,2.567-1.143c1.006,0,1.802,0.331,2.388,0.992c0.586,0.662,0.879,1.535,0.879,2.619v0.769h-5.53
		c0.024,0.942,0.262,1.658,0.714,2.146c0.451,0.488,1.087,0.732,1.908,0.732c0.864,0,1.719-0.181,2.563-0.542v1.084
		c-0.43,0.186-0.836,0.319-1.219,0.399C34.199,19.288,33.736,19.328,33.194,19.328z M32.865,12.025c-0.645,0-1.159,0.21-1.542,0.63
		s-0.609,1.001-0.677,1.743h4.197c0-0.767-0.171-1.354-0.513-1.761S33.5,12.025,32.865,12.025z"/>
	<path fill="#026CB4" d="M41.427,19.328c-1.162,0-2.062-0.357-2.699-1.073c-0.637-0.715-0.956-1.727-0.956-3.036
		c0-1.343,0.323-2.38,0.97-3.113s1.569-1.099,2.765-1.099c0.386,0,0.771,0.042,1.157,0.125s0.688,0.181,0.908,0.293l-0.374,1.033
		c-0.269-0.107-0.562-0.196-0.879-0.268c-0.317-0.07-0.598-0.106-0.842-0.106c-1.631,0-2.446,1.04-2.446,3.12
		c0,0.986,0.199,1.743,0.597,2.271c0.397,0.527,0.987,0.791,1.769,0.791c0.669,0,1.355-0.144,2.058-0.432v1.077
		C42.918,19.188,42.242,19.328,41.427,19.328z"/>
	<path fill="#026CB4" d="M47.953,18.324c0.215,0,0.422-0.016,0.623-0.047s0.359-0.065,0.476-0.099v0.93
		c-0.132,0.063-0.326,0.116-0.582,0.157c-0.257,0.042-0.487,0.063-0.692,0.063c-1.553,0-2.329-0.818-2.329-2.454v-4.775h-1.15
		v-0.586l1.15-0.505l0.513-1.714h0.703v1.86h2.329v0.945h-2.329v4.724c0,0.483,0.115,0.854,0.344,1.113S47.552,18.324,47.953,18.324
		z"/>
</g>
</svg>
